<?xml version="1.0" standalone="no"?>
<!DOCTYPE svg PUBLIC "-//W3C//DTD SVG 20010904//EN"
 "http://www.w3.org/TR/2001/REC-SVG-20010904/DTD/svg10.dtd">
<svg version="1.0" xmlns="http://www.w3.org/2000/svg"
 width="123.000000pt" height="123.000000pt" viewBox="0 0 123.000000 123.000000"
 preserveAspectRatio="xMidYMid meet">
<metadata>
Created by potrace 1.11, written by Peter Selinger 2001-2013
</metadata>
<g transform="translate(0.000000,123.000000) scale(0.100000,-0.100000)"
fill="#000000" stroke="none">
<path d="M1061 967 c-6 -6 -11 -16 -11 -23 0 -8 -21 -12 -67 -12 -66 1 -149
-20 -180 -45 -51 -41 -95 -93 -119 -144 -27 -54 -29 -66 -28 -173 1 -105 3
-120 29 -169 42 -82 115 -149 180 -165 6 -2 17 -6 26 -10 22 -10 119 -15 119
-6 0 4 11 6 25 5 14 -2 25 0 25 5 0 5 7 7 17 6 35 -5 166 79 145 93 -4 3 -18
23 -31 44 -26 42 -38 45 -69 17 -12 -12 -22 -18 -22 -15 0 3 -10 -1 -23 -10
-13 -8 -48 -18 -79 -21 -94 -10 -165 35 -197 125 -22 62 -19 162 5 198 9 14
11 22 5 19 -17 -11 -13 2 7 23 9 10 29 32 43 49 15 17 29 28 32 25 4 -3 13 -1
20 5 8 7 17 9 20 5 4 -3 7 -2 7 4 0 24 148 0 165 -26 9 -15 21 -14 23 2 1 19
9 48 26 96 24 65 21 91 -8 91 -14 0 -36 4 -49 9 -16 6 -28 6 -36 -2z"/>
<path d="M177 964 c-2 -1 -102 -12 -128 -14 -10 0 2 -94 13 -101 5 -3 27 -4
48 -2 37 4 39 3 35 -19 -3 -12 -7 -39 -10 -58 -3 -19 -7 -46 -10 -60 -3 -14
-8 -45 -11 -70 -6 -45 -10 -65 -19 -110 -3 -14 -7 -43 -10 -65 -3 -22 -8 -53
-11 -70 -4 -16 -7 -39 -9 -50 -1 -15 -10 -21 -33 -23 -31 -3 -31 -4 -25 -50 3
-26 10 -52 15 -59 9 -11 44 -10 56 2 3 2 11 0 19 -6 10 -9 13 -8 13 0 0 7 6
11 13 10 24 -3 47 1 46 8 -1 5 0 10 1 13 1 3 3 23 6 45 4 39 10 78 14 83 2 1
3 14 4 30 1 15 5 33 9 40 5 6 6 16 2 22 -3 5 7 8 25 5 16 -2 32 0 35 5 3 5 16
5 31 0 17 -7 23 -7 19 0 -4 7 3 9 20 6 32 -6 28 -1 48 -54 21 -53 21 -59 0
-59 -77 1 -94 -3 -89 -20 3 -10 7 -33 8 -51 1 -20 10 -37 20 -43 10 -5 18 -6
18 -2 0 5 21 8 46 8 25 -1 47 2 50 6 2 4 14 6 25 4 12 -3 31 0 41 6 16 9 19 8
13 -2 -5 -8 -4 -10 3 -5 10 6 55 15 89 18 7 1 10 5 7 10 -3 4 -7 24 -9 44 -4
41 -15 52 -50 48 -14 -1 -24 1 -23 4 1 4 -4 18 -12 32 -7 14 -13 26 -12 28 1
1 -5 19 -14 40 -8 20 -24 60 -34 87 -10 28 -37 97 -60 155 -23 58 -42 110 -44
115 -1 6 -10 28 -20 50 -10 22 -19 47 -20 55 -2 12 -19 15 -70 16 -37 0 -68
-1 -69 -2z m114 -290 c10 -23 21 -54 25 -68 5 -22 3 -26 -17 -27 -13 -1 -35
-2 -49 -3 -17 -1 -24 4 -22 13 2 8 5 33 8 55 3 23 7 50 8 61 2 11 4 29 5 40 2
18 4 17 13 -5 6 -14 19 -44 29 -66z"/>
</g>
</svg>
